Coordinates
version=1
nRows=28
nColumns=34
inDegrees=no

Units are S.I. units (second, meters, Newtons, ...)
If the header above contains a line with 'inDegrees', this indicates whether rotational values are in degrees (yes) or radians (no).

endheader
time	pelvis_tilt	pelvis_list	pelvis_rotation	pelvis_tx	pelvis_ty	pelvis_tz	hip_flexion_r	hip_adduction_r	hip_rotation_r	knee_angle_r	ankle_angle_r	subtalar_angle_r	mtp_angle_r	hip_flexion_l	hip_adduction_l	hip_rotation_l	knee_angle_l	ankle_angle_l	subtalar_angle_l	mtp_angle_l	lumbar_extension	lumbar_bending	lumbar_rotation	arm_flex_r	arm_add_r	arm_rot_r	elbow_flex_r	pro_sup_r	arm_flex_l	arm_add_l	arm_rot_l	elbow_flex_l	pro_sup_l
1.43	-0.218374	-0.0769528	0.0122767	-0.395616	0.916586	-0.589339	0.701691	-0.105189	-0.224302	0.36313	-0.637135	-0.0157588	-0.110924	0.790802	-0.220082	-0.148349	0.407046	-0.631767	0.139606	-0.110928	-0.289914	0.116468	-0.0930608	0.00610119	-0.84045	-0.128025	1.60029	1.53323	-0.304212	-0.828452	-0.233456	1.70752	1.40864
1.44	-0.228015	-0.0755292	0.00747542	-0.38699	0.886537	-0.589261	0.767982	-0.106298	-0.189821	0.513103	-0.393549	-0.0419625	-0.110912	0.860197	-0.21333	-0.10346	0.558641	-0.408237	0.0885519	-0.110916	-0.283388	0.115762	-0.0877958	-0.0505858	-0.845048	-0.149387	1.58269	1.53439	-0.351289	-0.819546	-0.240895	1.69417	1.40522
1.45	-0.239463	-0.0739007	0.00242128	-0.379306	0.857913	-0.589136	0.836719	-0.106999	-0.158402	0.654713	-0.187225	-0.0652469	-0.1109	0.930937	-0.206994	-0.0640147	0.700918	-0.219013	0.0438158	-0.110904	-0.279056	0.114262	-0.082749	-0.0991294	-0.845202	-0.167122	1.55783	1.53716	-0.392758	-0.808475	-0.246289	1.67372	1.40799
1.46	-0.252598	-0.0720991	-0.00285882	-0.372517	0.830729	-0.588969	0.907614	-0.107308	-0.130046	0.787752	-0.0180903	-0.0855781	-0.110889	1.00274	-0.201095	-0.0299146	0.833658	-0.0639613	0.00543727	-0.110892	-0.277048	0.112003	-0.0779344	-0.139567	-0.840922	-0.181287	1.52586	1.54155	-0.428604	-0.795255	-0.249632	1.64622	1.41703
1.47	-0.266888	-0.0701537	-0.00827024	-0.366529	0.805067	-0.588771	0.979765	-0.10727	-0.104765	0.91172	0.114798	-0.102839	-0.110877	1.07473	-0.195685	-0.000886333	0.956355	0.0579545	-0.02654	-0.11088	-0.277681	0.109092	-0.0732997	-0.172212	-0.832264	-0.192205	1.48727	1.54751	-0.458674	-0.780001	-0.250737	1.61183	1.43248
1.48	-0.281557	-0.0681511	-0.0136441	-0.361165	0.781661	-0.588591	1.0514	-0.107001	-0.0825851	1.02587	0.214206	-0.11678	-0.110865	1.14523	-0.190824	0.0234858	1.06834	0.14951	-0.0521328	-0.110869	-0.281568	0.105658	-0.0687202	-0.197802	-0.819418	-0.200508	1.44314	1.555	-0.482706	-0.763018	-0.249182	1.57095	1.45439
1.49	-0.295577	-0.0661673	-0.0187734	-0.356316	0.760645	-0.588447	1.12004	-0.106659	-0.0635246	1.12933	0.284994	-0.127079	-0.110853	1.21197	-0.186557	0.0436691	1.16895	0.215383	-0.0715049	-0.110857	-0.28944	0.101852	-0.064034	-0.217476	-0.802773	-0.206988	1.39522	1.56389	-0.500489	-0.744808	-0.24442	1.52435	1.48245
1.5	-0.308112	-0.0642585	-0.023459	-0.352131	0.741834	-0.588361	1.18312	-0.106399	-0.0474905	1.22128	0.333496	-0.133554	-0.110842	1.27263	-0.182903	0.0601191	1.2577	0.261497	-0.0850578	-0.110845	-0.301824	0.0978133	-0.0591185	-0.232629	-0.782964	-0.212344	1.34585	1.57391	-0.512077	-0.725998	-0.236021	1.47329	1.5158
1.51	-0.318652	-0.0623908	-0.0275581	-0.348405	0.72492	-0.588318	1.23877	-0.10629	-0.0341917	1.30123	0.366386	-0.136372	-0.11083	1.32564	-0.179839	0.0732846	1.33445	0.293939	-0.093487	-0.110833	-0.318622	0.0936796	-0.0539445	-0.24474	-0.760875	-0.216978	1.2978	1.58467	-0.51798	-0.70721	-0.223933	1.41951	1.55305
1.52	-0.327334	-0.0605078	-0.0310214	-0.345003	0.709732	-0.588325	1.2864	-0.106308	-0.023125	1.36928	0.389588	-0.136111	-0.110818	1.37065	-0.177255	0.083662	1.39963	0.317968	-0.0977841	-0.110822	-0.338929	0.089555	-0.0486124	-0.255263	-0.737573	-0.220893	1.25393	1.59542	-0.519264	-0.688935	-0.208581	1.36519	1.59198
1.53	-0.334904	-0.058534	-0.033869	-0.341862	0.696031	-0.5884	1.32672	-0.106374	-0.0136692	1.42621	0.407591	-0.133649	-0.110807	1.40852	-0.174918	0.0918374	1.45423	0.337415	-0.099187	-0.11081	-0.361158	0.0855188	-0.0433502	-0.265529	-0.714205	-0.223704	1.21683	1.60507	-0.517508	-0.671464	-0.190853	1.31285	1.6296
1.54	-0.342459	-0.0563906	-0.0361474	-0.339001	0.683535	-0.588579	1.36142	-0.106422	-0.0052163	1.47342	0.423245	-0.12999	-0.110795	1.44103	-0.172461	0.0984644	1.49969	0.354564	-0.0990641	-0.110798	-0.383415	0.0816364	-0.0384971	-0.276623	-0.691868	-0.224743	1.18848	1.61225	-0.514634	-0.654885	-0.171999	1.26502	1.66281
1.55	-0.351095	-0.0540299	-0.0378931	-0.336454	0.672173	-0.588868	1.39261	-0.106431	0.00272816	1.51262	0.437936	-0.126115	-0.110783	1.47027	-0.16944	0.104183	1.53769	0.370403	-0.0987379	-0.110786	-0.40395	0.0779608	-0.0344527	-0.289283	-0.671475	-0.22325	1.17002	1.61573	-0.512619	-0.63913	-0.15347	1.22388	1.68952
1.56	-0.361621	-0.0514735	-0.0391192	-0.334176	0.661862	-0.589256	1.42222	-0.106417	0.0104986	1.54553	0.451991	-0.122882	-0.110771	1.49809	-0.165429	0.109531	1.56979	0.385064	-0.0993118	-0.110775	-0.421545	0.0745241	-0.0315857	-0.30385	-0.653634	-0.218626	1.16157	1.61468	-0.513158	-0.62405	-0.136639	1.19093	1.70904
1.57	-0.374356	-0.0487636	-0.0398301	-0.332072	0.652593	-0.589742	1.45162	-0.106387	0.018258	1.57364	0.46514	-0.120938	-0.11076	1.52577	-0.160123	0.114903	1.59728	0.398272	-0.101558	-0.110763	-0.435643	0.0713697	-0.0301223	-0.320288	-0.638566	-0.210651	1.16229	1.60896	-0.517375	-0.609469	-0.122534	1.16673	1.72191
1.58	-0.389285	-0.0459854	-0.040051	-0.330153	0.644202	-0.590314	1.48142	-0.106304	0.0260211	1.59798	0.476929	-0.12066	-0.110748	1.55385	-0.153416	0.120547	1.62106	0.40968	-0.105875	-0.110751	-0.446372	0.0685287	-0.0300716	-0.338258	-0.626094	-0.199594	1.1704	1.5992	-0.525675	-0.595211	-0.111681	1.15083	1.72945
1.59	-0.406104	-0.0432607	-0.0398657	-0.32848	0.636585	-0.590959	1.51162	-0.106068	0.0337046	1.61918	0.486988	-0.122131	-0.110736	1.58231	-0.145437	0.126562	1.64168	0.419066	-0.112296	-0.110739	-0.454306	0.0659902	-0.0312046	-0.357228	-0.615713	-0.186205	1.18344	1.58688	-0.537777	-0.581123	-0.104111	1.14192	1.73321
1.6	-0.424384	-0.0406829	-0.0394373	-0.327071	0.629685	-0.591651	1.54178	-0.105521	0.0411985	1.63748	0.495157	-0.125164	-0.110724	1.61073	-0.136541	0.132895	1.65941	0.426409	-0.120548	-0.110728	-0.460253	0.06368	-0.0331139	-0.376582	-0.606709	-0.171574	1.19862	1.57413	-0.552894	-0.567075	-0.099499	1.13813	1.73449
1.61	-0.443674	-0.0382862	-0.0390159	-0.325947	0.623509	-0.592347	1.57132	-0.104505	0.0484338	1.65292	0.501491	-0.129362	-0.110713	1.63855	-0.127246	0.139323	1.67438	0.431879	-0.130136	-0.110716	-0.465008	0.0614337	-0.0353404	-0.395726	-0.598303	-0.156936	1.21319	1.56321	-0.569984	-0.55297	-0.0973626	1.1374	1.73391
1.62	-0.463518	-0.0360044	-0.0388612	-0.325105	0.618033	-0.59301	1.59971	-0.102918	0.0553989	1.66545	0.506199	-0.134205	-0.110701	1.66526	-0.118137	0.145482	1.68662	0.435777	-0.140465	-0.110704	-0.469189	0.0590052	-0.0374856	-0.414138	-0.58979	-0.143448	1.2249	1.5557	-0.587987	-0.538727	-0.0972333	1.13786	1.73128
1.63	-0.483539	-0.0336791	-0.0391801	-0.324471	0.613278	-0.593618	1.6266	-0.100766	0.0621105	1.67503	0.509574	-0.139138	-0.110689	1.69047	-0.109767	0.150943	1.6962	0.438478	-0.150926	-0.110692	-0.473206	0.0561376	-0.039298	-0.431397	-0.580643	-0.13204	1.23222	1.55215	-0.605967	-0.524284	-0.0987401	1.13805	1.72572
1.64	-0.503472	-0.0311337	-0.0400824	-0.323992	0.609255	-0.594179	1.65177	-0.0981894	0.068561	1.6817	0.511934	-0.143644	-0.110678	1.71392	-0.102555	0.155324	1.70317	0.440366	-0.160974	-0.110681	-0.477306	0.0526499	-0.0407068	-0.447183	-0.570561	-0.123308	1.23451	1.55213	-0.623161	-0.509603	-0.101595	1.1371	1.71603
1.65	-0.523105	-0.0282613	-0.0415686	-0.323636	0.605965	-0.594713	1.67508	-0.0954546	0.0746756	1.68562	0.513594	-0.147277	-0.110666	1.73545	-0.09673	0.158386	1.70768	0.441803	-0.170169	-0.110669	-0.481619	0.0485061	-0.041807	-0.461239	-0.559476	-0.117442	1.23197	1.55447	-0.638952	-0.494677	-0.105534	1.13462	1.7012
1.66	-0.54225	-0.0250588	-0.0435283	-0.323388	0.603392	-0.595247	1.69646	-0.0929109	0.0803085	1.687	0.51484	-0.14969	-0.110654	1.75497	-0.0923072	0.160082	1.7099	0.443093	-0.178206	-0.110657	-0.486191	0.0438366	-0.0428154	-0.473319	-0.547519	-0.114219	1.22542	1.55761	-0.652809	-0.479551	-0.110252	1.13065	1.68089
1.67	-0.560737	-0.0216154	-0.0457516	-0.323212	0.601499	-0.595808	1.71582	-0.0909415	0.0852876	1.68612	0.515921	-0.150636	-0.110643	1.77243	-0.0891031	0.160537	1.71006	0.444459	-0.184936	-0.110645	-0.491012	0.0388978	-0.0440266	-0.483131	-0.534966	-0.113075	1.21605	1.56001	-0.66423	-0.464348	-0.115368	1.12544	1.65575
1.68	-0.578419	-0.0180607	-0.0479565	-0.323055	0.60022	-0.596425	1.7331	-0.0899161	0.0894765	1.6833	0.517036	-0.14997	-0.110631	1.78777	-0.086771	0.159984	1.70837	0.446022	-0.190368	-0.110634	-0.496037	0.0340076	-0.0457656	-0.490302	-0.522171	-0.11323	1.20514	1.56047	-0.672703	-0.449289	-0.120425	1.11936	1.62741
1.69	-0.595152	-0.0145261	-0.0498602	-0.322872	0.599503	-0.597123	1.74821	-0.0901267	0.0928147	1.6789	0.518323	-0.147659	-0.110619	1.80093	-0.0848823	0.158703	1.70507	0.447804	-0.194651	-0.110622	-0.501219	0.0294806	-0.0483134	-0.494387	-0.509496	-0.113829	1.19384	1.5583	-0.67768	-0.434714	-0.12494	1.11279	1.59807
1.7	-0.610725	-0.011147	-0.0512623	-0.322626	0.599311	-0.597906	1.76103	-0.0916879	0.0953084	1.67325	0.51984	-0.143813	-0.110607	1.81184	-0.0830605	0.156994	1.70042	0.449762	-0.198001	-0.11061	-0.506502	0.02556	-0.051787	-0.494897	-0.497248	-0.114064	1.18299	1.55321	-0.67857	-0.421072	-0.128432	1.10609	1.56964
